<svg xmlns="http://www.w3.org/2000/svg" width="273.757" height="186.563" viewBox="0 0 273.757 186.563"><g transform="translate(0 0)"><path d="M266.357,302.713c-.125-17.9,22.447-29.543,51.981-29.543,29.6,0,61.825,10.452,61.825,51.261v35.739c0,7.449,3.387,12.331,9.908,12.331,6.459,0,9.844-4.881,9.844-12.331v-87H406v87c0,7.511,3.512,12.331,9.908,12.331,6.332,0,10.1-4.881,10.033-12.331-.189-21.031-.189,5.07-.189-35.739s32.291-51.261,61.7-51.261c29.471,0,52.106,11.956,52.106,29.543-.064,6.635-3.826,15.9-17.871,17.34-32.923,3.442-32.923-32.673-13.169-35.557a49.277,49.277,0,0,0-36.053,2.755c-14.987,7.261-14.422,28.417-14.422,37.179v35.739c0,31.108-45.772,31.108-55.116,16.712-9.341,14.4-54.991,14.4-54.991-16.712V324.431c0-8.762.628-29.918-14.486-37.179a48.533,48.533,0,0,0-35.93-2.755c19.627,2.88,19.627,38.994-13.231,35.557C270.244,318.611,266.357,309.348,266.357,302.713Z" transform="translate(-265.799 -199.615)" fill="#005140"/><path d="M473.386,263.849c7.4-7.761,13.231-21.343,30.474-17.276-4.7-14.207-37.245-22.219-52.8-11.58-15.487,10.7-14.17,21.657-8.591,29.732S460.408,277.431,473.386,263.849Z" transform="translate(-288.043 -193.988)" fill="#00904a"/><path d="M363.082,258.488c-2.823-13.332-9.657-21.468-27.965-18.656,15.048-17.779,45.021-17.087,56.371-2.691s6.332,26.477-1.192,32.359S365.968,271.824,363.082,258.488Z" transform="translate(-274.678 -193.508)" fill="#00904a"/><path d="M407.3,216.61c3.2-10.7,13.608-17.462,7.335-28.042,19.063-.5,28.217,18.277,25.584,33.048-2.7,14.835-13.795,18.027-21.444,16.65C411.058,236.889,404.287,226.812,407.3,216.61Z" transform="translate(-283.904 -188.559)" fill="#00904a"/><path d="M422.2,251.714a6.666,6.666,0,1,1-6.585,6.635,6.666,6.666,0,0,1,6.585-6.635Z" transform="translate(-285.073 -196.811)" fill="#dc2f34"/><path d="M337.63,319.034c.5,2.691,1,6.385,1.253,8.011-27.526,9.262-41.51,21.343-41.51,33.8,0,15.9,14.862,25.913,40.256,11.455a19.952,19.952,0,0,1,.439,5.07c-10.974,13.646-69.538,25.662-72.234-12.706C262.824,321.789,318.7,334.806,337.63,319.034Z" transform="translate(-265.719 -205.609)" fill="#dc2f34"/><path d="M497.229,319.034c-.25,2.441-1,6.385-1.192,8.011,27.464,9.262,41.446,21.343,41.446,33.8,0,15.9-14.8,25.913-40.254,11.455a9.856,9.856,0,0,0-.439,4.945c10.911,13.646,69.538,25.788,72.234-12.581C572.035,321.789,516.228,334.806,497.229,319.034Z" transform="translate(-295.455 -205.609)" fill="#dc2f34"/></g></svg>